HIERARCHY
ROOT reference
{
  OFFSET -65.3212 -1.93545 -120.338
  CHANNELS 6 Xposition Yposition Zposition Zrotation Xrotation Yrotation
  JOINT Hips
  {
    OFFSET 0 78.7191 0
    CHANNELS 6 Xposition Yposition Zposition Zrotation Xrotation Yrotation
    JOINT Chest
    {
      OFFSET 0 8.7983 -4.7612
      CHANNELS 6 Xposition Yposition Zposition Zrotation Xrotation Yrotation
      JOINT Chest2
      {
        OFFSET 0 8.0291 0.4195
        CHANNELS 6 Xposition Yposition Zposition Zrotation Xrotation Yrotation
        JOINT Chest3
        {
          OFFSET 0 9.9351 -2.2114
          CHANNELS 6 Xposition Yposition Zposition Zrotation Xrotation Yrotation
          JOINT Neck
          {
            OFFSET 0 22.3885 -0.4656
            CHANNELS 6 Xposition Yposition Zposition Zrotation Xrotation Yrotation
            JOINT Head
            {
              OFFSET -0.0001 12.643 3.4389
              CHANNELS 6 Xposition Yposition Zposition Zrotation Xrotation Yrotation
              End Site
              {
                OFFSET 0.0001 17.6655 0.5274
              }
            }
          }
          JOINT LeftCollar
          {
            OFFSET 2.2603 21.606 7.4023
            CHANNELS 6 Xposition Yposition Zposition Zrotation Xrotation Yrotation
            JOINT LeftShoulder
            {
              OFFSET 13.5163 -1.1332 -5.0146
              CHANNELS 6 Xposition Yposition Zposition Zrotation Xrotation Yrotation
              JOINT LeftElbow
              {
                OFFSET -0.0995 -28.05 -0.2431
                CHANNELS 6 Xposition Yposition Zposition Zrotation Xrotation Yrotation
                JOINT LeftWrist
                {
                  OFFSET 0.0679 -23.3996 -0.1402
                  CHANNELS 6 Xposition Yposition Zposition Zrotation Xrotation Yrotation
                  JOINT LeftFinger1
                  {
                    OFFSET 0.7932 -9.069 2.5189
                    CHANNELS 6 Xposition Yposition Zposition Zrotation Xrotation Yrotation
                    JOINT LeftFinger11
                    {
                      OFFSET -0.8272 -3.3923 0.5977
                      CHANNELS 6 Xposition Yposition Zposition Zrotation Xrotation Yrotation
                      JOINT LeftFinger12
                      {
                        OFFSET -0.5649 -2.3158 0.4082
                        CHANNELS 6 Xposition Yposition Zposition Zrotation Xrotation Yrotation
                        End Site
                        {
                          OFFSET -0.4919 -1.6479 0.2673
                        }
                      }
                    }
                  }
                  JOINT LeftFinger2
                  {
                    OFFSET 0.9159 -9.2044 0.2193
                    CHANNELS 6 Xposition Yposition Zposition Zrotation Xrotation Yrotation
                    JOINT LeftFinger21
                    {
                      OFFSET 0.0117 -4.1944 -0.0248
                      CHANNELS 6 Xposition Yposition Zposition Zrotation Xrotation Yrotation
                      JOINT LeftFinger22
                      {
                        OFFSET 0.0071 -2.3249 -0.0142
                        CHANNELS 6 Xposition Yposition Zposition Zrotation Xrotation Yrotation
                        End Site
                        {
                          OFFSET -0.1475 -2.0882 0.0028
                        }
                      }
                    }
                  }
                  JOINT LeftFinger3
                  {
                    OFFSET 0.6113 -8.7231 -2.0637
                    CHANNELS 6 Xposition Yposition Zposition Zrotation Xrotation Yrotation
                    JOINT LeftFinger31
                    {
                      OFFSET -0.1927 -3.8059 -0.2383
                      CHANNELS 6 Xposition Yposition Zposition Zrotation Xrotation Yrotation
                      JOINT LeftFinger32
                      {
                        OFFSET -0.1091 -2.1688 -0.1362
                        CHANNELS 6 Xposition Yposition Zposition Zrotation Xrotation Yrotation
                        End Site
                        {
                          OFFSET -0.2358 -1.9176 -0.0906
                        }
                      }
                    }
                  }
                  JOINT LeftFinger4
                  {
                    OFFSET -0.6151 -8.0947 -3.5641
                    CHANNELS 6 Xposition Yposition Zposition Zrotation Xrotation Yrotation
                    JOINT LeftFinger41
                    {
                      OFFSET -0.4882 -2.341 -0.6462
                      CHANNELS 6 Xposition Yposition Zposition Zrotation Xrotation Yrotation
                      JOINT LeftFinger42
                      {
                        OFFSET -0.3575 -1.7167 -0.4742
                        CHANNELS 6 Xposition Yposition Zposition Zrotation Xrotation Yrotation
                        End Site
                        {
                          OFFSET -0.4187 -1.5237 -0.3496
                        }
                      }
                    }
                  }
                  JOINT LeftFinger0
                  {
                    OFFSET -1.42 -1.8761 1.4223
                    CHANNELS 6 Xposition Yposition Zposition Zrotation Xrotation Yrotation
                    JOINT LeftFinger01
                    {
                      OFFSET -1.1471 -3.4929 2.6334
                      CHANNELS 6 Xposition Yposition Zposition Zrotation Xrotation Yrotation
                      JOINT LeftFinger02
                      {
                        OFFSET -0.823 -2.3 1.6571
                        CHANNELS 6 Xposition Yposition Zposition Zrotation Xrotation Yrotation
                        End Site
                        {
                          OFFSET -0.5822 -1.6914 1.1582
                        }
                      }
                    }
                  }
                }
              }
            }
          }
          JOINT RightCollar
          {
            OFFSET -2.2603 21.606 7.4023
            CHANNELS 6 Xposition Yposition Zposition Zrotation Xrotation Yrotation
            JOINT RightShoulder
            {
              OFFSET -13.5187 -1.1334 -5.0155
              CHANNELS 6 Xposition Yposition Zposition Zrotation Xrotation Yrotation
              JOINT RightElbow
              {
                OFFSET 0.0994 -28.0499 -0.2431
                CHANNELS 6 Xposition Yposition Zposition Zrotation Xrotation Yrotation
                JOINT RightWrist
                {
                  OFFSET -0.0679 -23.3996 -0.1402
                  CHANNELS 6 Xposition Yposition Zposition Zrotation Xrotation Yrotation
                  JOINT RightFinger1
                  {
                    OFFSET -0.7932 -9.0691 2.5189
                    CHANNELS 6 Xposition Yposition Zposition Zrotation Xrotation Yrotation
                    JOINT RightFinger11
                    {
                      OFFSET 0.8272 -3.3923 0.5977
                      CHANNELS 6 Xposition Yposition Zposition Zrotation Xrotation Yrotation
                      JOINT RightFinger12
                      {
                        OFFSET 0.565 -2.3158 0.4082
                        CHANNELS 6 Xposition Yposition Zposition Zrotation Xrotation Yrotation
                        End Site
                        {
                          OFFSET 0.4919 -1.6479 0.2673
                        }
                      }
                    }
                  }
                  JOINT RightFinger2
                  {
                    OFFSET -0.916 -9.2044 0.2193
                    CHANNELS 6 Xposition Yposition Zposition Zrotation Xrotation Yrotation
                    JOINT RightFinger21
                    {
                      OFFSET -0.0117 -4.1944 -0.0248
                      CHANNELS 6 Xposition Yposition Zposition Zrotation Xrotation Yrotation
                      JOINT RightFinger22
                      {
                        OFFSET -0.0071 -2.3249 -0.0142
                        CHANNELS 6 Xposition Yposition Zposition Zrotation Xrotation Yrotation
                        End Site
                        {
                          OFFSET 0.1475 -2.0882 0.0028
                        }
                      }
                    }
                  }
                  JOINT RightFinger3
                  {
                    OFFSET -0.6113 -8.7231 -2.0637
                    CHANNELS 6 Xposition Yposition Zposition Zrotation Xrotation Yrotation
                    JOINT RightFinger31
                    {
                      OFFSET 0.1927 -3.8059 -0.2383
                      CHANNELS 6 Xposition Yposition Zposition Zrotation Xrotation Yrotation
                      JOINT RightFinger32
                      {
                        OFFSET 0.1091 -2.1688 -0.1362
                        CHANNELS 6 Xposition Yposition Zposition Zrotation Xrotation Yrotation
                        End Site
                        {
                          OFFSET 0.2358 -1.9176 -0.0906
                        }
                      }
                    }
                  }
                  JOINT RightFinger4
                  {
                    OFFSET 0.6151 -8.0947 -3.564
                    CHANNELS 6 Xposition Yposition Zposition Zrotation Xrotation Yrotation
                    JOINT RightFinger41
                    {
                      OFFSET 0.4882 -2.341 -0.6462
                      CHANNELS 6 Xposition Yposition Zposition Zrotation Xrotation Yrotation
                      JOINT RightFinger42
                      {
                        OFFSET 0.3574 -1.7166 -0.4742
                        CHANNELS 6 Xposition Yposition Zposition Zrotation Xrotation Yrotation
                        End Site
                        {
                          OFFSET 0.4187 -1.5237 -0.3496
                        }
                      }
                    }
                  }
                  JOINT RightFinger0
                  {
                    OFFSET 1.4199 -1.8761 1.4221
                    CHANNELS 6 Xposition Yposition Zposition Zrotation Xrotation Yrotation
                    JOINT RightFinger01
                    {
                      OFFSET 1.1472 -3.4929 2.6336
                      CHANNELS 6 Xposition Yposition Zposition Zrotation Xrotation Yrotation
                      JOINT RightFinger02
                      {
                        OFFSET 0.8229 -2.3 1.6571
                        CHANNELS 6 Xposition Yposition Zposition Zrotation Xrotation Yrotation
                        End Site
                        {
                          OFFSET 0.5822 -1.6914 1.1582
                        }
                      }
                    }
                  }
                }
              }
            }
          }
        }
      }
    }
    JOINT RightHip
    {
      OFFSET -9.412 3.9771 -0.7758
      CHANNELS 6 Xposition Yposition Zposition Zrotation Xrotation Yrotation
      JOINT RightKnee
      {
        OFFSET -0.7531 -40.938 0
        CHANNELS 6 Xposition Yposition Zposition Zrotation Xrotation Yrotation
        JOINT RightAnkle
        {
          OFFSET 0 -40.1986 0
          CHANNELS 6 Xposition Yposition Zposition Zrotation Xrotation Yrotation
          JOINT RightToe
          {
            OFFSET 0 -4.4182 9.239
            CHANNELS 6 Xposition Yposition Zposition Zrotation Xrotation Yrotation
            End Site
            {
              OFFSET 0 0 6.1981
            }
          }
        }
      }
    }
    JOINT LeftHip
    {
      OFFSET 9.4119 3.9773 -0.7758
      CHANNELS 6 Xposition Yposition Zposition Zrotation Xrotation Yrotation
      JOINT LeftKnee
      {
        OFFSET 0.7532 -40.9383 0
        CHANNELS 6 Xposition Yposition Zposition Zrotation Xrotation Yrotation
        JOINT LeftAnkle
        {
          OFFSET 0 -40.1986 0
          CHANNELS 6 Xposition Yposition Zposition Zrotation Xrotation Yrotation
          JOINT LeftToe
          {
            OFFSET 0 -4.4182 9.239
            CHANNELS 6 Xposition Yposition Zposition Zrotation Xrotation Yrotation
            End Site
            {
              OFFSET 0 0 6.1981
            }
          }
        }
      }
    }
  }
}
MOTION
Frames:	4
Frame Time:	0.0333333
-61.5387 -22.372 48.7403 0 0 -0 7.10543e-015 78.7191 0 34.7797 -50.2988 -178.161 -7.10543e-015 8.7983 -4.7612 3.99371 7.20992 -3.18626 7.10543e-015 8.0291 0.4195 8.48732 14.1654 -6.95612 -7.10543e-015 9.9351 -2.2114 8.48735 14.1654 -6.95615 -1.06581e-014 22.3885 -0.4656 -1.3592 -13.8848 -23.3594 -0.0001 12.643 3.4389 43.3011 5.54079 0.983449 2.2603 21.606 7.4023 12.7949 -3.68581 -45.1429 13.5163 -1.1332 -5.0146 86.1286 -55.9985 53.1709 -0.0995 -28.05 -0.2431 -67.4624 -74.5438 -37.2608 0.0679 -23.3996 -0.1402 31.4281 12.5118 -35.7596 0.7932 -9.06901 2.5189 -3.03458 13.5333 -2.18209 -0.8272 -3.3923 0.5977 -35.3168 20.4567 4.66834 -0.5649 -2.3158 0.4082 -36.3891 20.9688 4.99565 0.9159 -9.20441 0.2193 -1.00372 1.77408 1.17348 0.0117 -4.1944 -0.0248 -42.7842 24.7472 5.54523 0.0071 -2.3249 -0.0142 -8.91326 5.6287 -0.442298 0.6113 -8.72311 -2.0637 -6.58204 6.72806 5.06488 -0.1927 -3.8059 -0.2383 -13.8829 9.6823 -0.67246 -0.1091 -2.1688 -0.1362 -15.2685 10.641 -0.610658 -0.6151 -8.09471 -3.5641 13.8074 -0.976092 8.79333 -0.4882 -2.341 -0.6462 -17.7367 12.2752 -1.06115 -0.3575 -1.7167 -0.4742 -8.75065 6.03025 -1.00076 -1.42 -1.8761 1.4223 -11.5753 -16.7453 -49.4479 -1.1471 -3.4929 2.6334 -4.5323 0.274113 0.313066 -0.823 -2.3 1.6571 8.53295 10.6973 -3.07917 -2.2603 21.606 7.4023 -25.6964 0.94336 -19.1874 -13.5187 -1.1334 -5.0155 -64.8823 -10.2843 -38.3626 0.0994 -28.0499 -0.2431 -40.3147 -41.4751 -39.2757 -0.0679 -23.3996 -0.1402 -13.9117 14.2302 -146.854 -0.7932 -9.0691 2.5189 -26.3169 9.86691 9.08483 0.8272 -3.3923 0.5977 39.4243 12.0337 -4.97748 0.565 -2.3158 0.4082 44.7301 13.2571 -6.22048 -0.916 -9.2044 0.2193 -2.23348 10.2522 5.03872 -0.0117 -4.1944 -0.0248 52.3752 15.6204 -6.40183 -0.0071 -2.3249 -0.0142 44.0892 13.7159 -4.48612 -0.6113 -8.7231 -2.0637 15.0073 7.5869 -5.70547 0.1927 -3.8059 -0.2383 37.2883 13.8496 -2.53177 0.1091 -2.1688 -0.1362 38.5715 14.2636 -2.77352 0.6151 -8.0947 -3.564 23.0539 4.37541 -8.90259 0.4882 -2.341 -0.6462 30.7535 11.5467 -0.514095 0.3574 -1.7166 -0.4742 30.6848 11.5224 -0.506144 1.4199 -1.8761 1.4221 7.91152 0.880234 52.6244 1.1472 -3.4929 2.6336 -0.671183 1.52903 0.489143 0.8229 -2.3 1.6571 -6.85817 13.9416 5.32568 -9.412 3.9771 -0.7758 -41.3784 -77.8074 -76.6415 -0.7531 -40.938 0 52.0307 71.7948 -46.3068 3.55271e-015 -40.1986 1.42109e-014 -2.99901 -22.7409 8.65452 3.55271e-015 -4.4182 9.239 1.35187 -10.9472 -0.801802 9.4119 3.9773 -0.7758 149.707 -50.6552 159.891 0.7532 -40.9383 0 -0.595162 75.4992 1.96669 -7.10543e-015 -40.1986 -8.88178e-015 17.2834 -7.72462 -19.9081 7.10543e-015 -4.4182 9.239 0.108059 3.67611 -0.052284 
-61.75 -20.0375 49.3428 0 0 -0 7.10543e-015 78.7191 0 36.3262 -53.2024 -176.038 7.10543e-015 8.7983 -4.7612 4.38944 7.01209 -2.89752 3.55271e-015 8.0291 0.4195 9.23467 13.7692 -6.4019 7.10543e-015 9.9351 -2.2114 9.23471 13.7692 -6.40191 -5.77316e-015 22.3885 -0.4656 -1.5731 -17.7817 -26.7554 -0.0001 12.643 3.4389 43.3659 7.10119 -0.671674 2.2603 21.606 7.4023 12.4485 -3.79307 -47.6058 13.5163 -1.1332 -5.0146 86.9183 -53.5164 52.7038 -0.0995 -28.05 -0.2431 -78.0856 -77.4993 -47.9576 0.0679 -23.3996 -0.1402 30.7424 14.5155 -36.9921 0.7932 -9.069 2.5189 -3.03458 13.5333 -2.18211 -0.8272 -3.3923 0.5977 -35.3168 20.4567 4.66837 -0.5649 -2.3158 0.4082 -36.3891 20.9688 4.99567 0.9159 -9.2044 0.2193 -1.00373 1.77405 1.17347 0.0117 -4.1944 -0.0248 -42.7842 24.7472 5.54524 0.0071 -2.3249 -0.0142 -8.91326 5.62869 -0.442293 0.6113 -8.7231 -2.0637 -6.58206 6.72806 5.06492 -0.1927 -3.8059 -0.2383 -13.8829 9.68227 -0.672474 -0.1091 -2.1688 -0.1362 -15.2684 10.641 -0.610644 -0.6151 -8.0947 -3.5641 13.8074 -0.976073 8.79336 -0.4882 -2.341 -0.6462 -17.7366 12.2752 -1.06117 -0.3575 -1.7167 -0.4742 -8.75068 6.03017 -1.00087 -1.42 -1.8761 1.4223 -11.5753 -16.7453 -49.4479 -1.1471 -3.4929 2.6334 -4.5323 0.274126 0.313049 -0.823 -2.3 1.6571 8.53292 10.6973 -3.07915 -2.2603 21.606 7.4023 -25.0045 1.08076 -22.4093 -13.5187 -1.1334 -5.0155 -63.4888 -11.0947 -38.6892 0.0994 -28.0499 -0.2431 -43.5637 -43.9672 -47.6707 -0.0679 -23.3996 -0.1402 -15.5323 14.7609 -140.401 -0.7932 -9.0691 2.5189 -26.3168 9.86697 9.08465 0.8272 -3.3923 0.5977 39.4243 12.0337 -4.97746 0.565 -2.3158 0.4082 44.701 13.2508 -6.21338 -0.916 -9.2044 0.2193 -2.23351 10.2522 5.03878 -0.0117 -4.1944 -0.0248 52.3752 15.6205 -6.40175 -0.0071 -2.3249 -0.0142 44.0892 13.7159 -4.48609 -0.6113 -8.7231 -2.0637 15.0073 7.58694 -5.70539 0.1927 -3.8059 -0.2383 37.2883 13.8496 -2.53174 0.1091 -2.1688 -0.1362 38.5715 14.2636 -2.77343 0.6151 -8.0947 -3.564 23.0539 4.37542 -8.90255 0.4882 -2.341 -0.6462 30.7535 11.5467 -0.51425 0.3574 -1.7166 -0.4742 30.6848 11.5224 -0.506166 1.4199 -1.8761 1.4221 7.91151 0.880238 52.6244 1.1472 -3.4929 2.6336 -0.671236 1.52902 0.489247 0.8229 -2.3 1.6571 -6.84183 13.9126 5.31228 -9.412 3.9771 -0.7758 -37.9087 -81.3283 -72.6827 -0.7531 -40.938 3.55271e-015 39.4741 68.3305 -34.1196 0 -40.1986 0 -2.43403 -22.2452 6.32305 -3.55271e-015 -4.4182 9.239 1.63361 -9.81042 -0.967506 9.4119 3.9773 -0.7758 150.508 -51.1779 161.105 0.7532 -40.9383 0 -0.612647 70.0998 2.01192 -7.10543e-015 -40.1986 1.77636e-015 16.3484 -5.9334 -21.3686 0 -4.4182 9.239 0.24513 2.86662 -0.0528482 
-61.7963 -18.0479 49.6785 0 0 -0 7.10543e-015 78.7191 0 37.519 -54.8062 -174.381 -3.55271e-015 8.7983 -4.7612 4.65463 6.94151 -2.8379 3.55271e-015 8.0291 0.4195 9.75728 13.6175 -6.30607 0 9.9351 -2.2114 9.7573 13.6176 -6.30609 -1.77636e-015 22.3885 -0.4656 -1.73054 -20.833 -28.869 -0.0001 12.643 3.4389 43.2725 8.45322 -1.98769 2.2603 21.606 7.4023 12.6396 -3.83837 -48.7574 13.5163 -1.1332 -5.0146 85.6791 -51.3106 51.0254 -0.0995 -28.05 -0.2431 -94.4559 -80.0131 -64.033 0.0679 -23.3996 -0.1402 30.0555 15.9138 -38.4611 0.7932 -9.069 2.5189 -3.03457 13.5333 -2.18209 -0.8272 -3.3923 0.5977 -35.3168 20.4567 4.66842 -0.5649 -2.3158 0.4082 -36.3891 20.9688 4.99569 0.9159 -9.2044 0.2193 -1.00373 1.77406 1.1735 0.0117 -4.1944 -0.0248 -42.7841 24.7472 5.5452 0.0071 -2.3249 -0.0142 -8.91326 5.62869 -0.442274 0.6113 -8.7231 -2.0637 -6.58207 6.72805 5.06495 -0.1927 -3.8059 -0.2383 -13.8829 9.68225 -0.672501 -0.1091 -2.1688 -0.1362 -15.2685 10.641 -0.610646 -0.6151 -8.0947 -3.5641 13.8074 -0.976077 8.7934 -0.4882 -2.341 -0.6462 -17.7367 12.2752 -1.06115 -0.3575 -1.7167 -0.4742 -8.75068 6.03015 -1.00086 -1.42 -1.8761 1.4223 -11.5753 -16.7453 -49.448 -1.1471 -3.4929 2.6334 -4.53229 0.274103 0.313055 -0.823 -2.3 1.6571 8.53292 10.6973 -3.07915 -2.2603 21.606 7.4023 -24.218 1.17633 -24.5448 -13.5187 -1.1334 -5.0155 -62.2118 -12.1043 -38.6176 0.0994 -28.0499 -0.2431 -47.6011 -46.636 -55.9016 -0.0679 -23.3996 -0.1402 -17.512 15.6108 -134.57 -0.7932 -9.0691 2.5189 -26.3168 9.86697 9.08466 0.8272 -3.3923 0.5977 39.4242 12.0337 -4.97743 0.565 -2.3158 0.4082 44.6719 13.2444 -6.20622 -0.916 -9.2044 0.2193 -2.23349 10.2522 5.03863 -0.0117 -4.1944 -0.0248 52.3752 15.6204 -6.40188 -0.0071 -2.3249 -0.0142 44.0891 13.716 -4.48598 -0.6113 -8.7231 -2.0637 15.0073 7.58688 -5.70557 0.1927 -3.8059 -0.2383 37.2882 13.8496 -2.53168 0.1091 -2.1688 -0.1362 38.5715 14.2636 -2.77361 0.6151 -8.0947 -3.564 23.0539 4.37543 -8.90248 0.4882 -2.341 -0.6462 30.7535 11.5467 -0.51423 0.3574 -1.7166 -0.4742 30.6847 11.5224 -0.50612 1.4199 -1.8761 1.4221 7.91152 0.880236 52.6244 1.1472 -3.4929 2.6336 -0.671151 1.52911 0.489068 0.8229 -2.3 1.6571 -6.82545 13.8838 5.29885 -9.412 3.9771 -0.7758 -25.6666 -83.5937 -59.4201 -0.7531 -40.938 0 31.4061 64.6457 -26.3624 -7.10543e-015 -40.1986 0 -2.0368 -21.6085 4.14798 3.55271e-015 -4.4182 9.239 1.89457 -8.85616 -1.11981 9.4119 3.9773 -0.7758 150.522 -52.5185 161.058 0.7532 -40.9383 1.42109e-014 -0.627618 65.2761 1.99687 7.10543e-015 -40.1986 1.77636e-015 15.1852 -4.6743 -22.2433 0 -4.4182 9.239 0.435688 1.66029 -0.048254 
-61.6737 -16.2487 49.8351 0 0 -0 7.10543e-015 78.7191 0 38.8224 -56.219 -172.686 0 8.7983 -4.7612 4.95072 6.78306 -2.74091 -7.10543e-015 8.0291 0.4195 10.3305 13.2928 -6.12815 -1.24345e-014 9.9351 -2.2114 10.3306 13.2928 -6.12817 -1.77636e-015 22.3885 -0.4656 -1.89163 -23.4057 -31.0123 -0.0001 12.643 3.4389 42.9823 9.53361 -3.03456 2.2603 21.606 7.4023 12.5965 -3.88762 -50.089 13.5163 -1.1332 -5.0146 83.5668 -48.9076 48.9685 -0.0995 -28.05 -0.2431 -116.299 -80.9243 -84.9825 0.0679 -23.3996 -0.1402 29.4351 16.6075 -40.0503 0.7932 -9.06901 2.5189 -3.03457 13.5333 -2.18212 -0.8272 -3.3923 0.5977 -35.3168 20.4567 4.66829 -0.5649 -2.3158 0.4082 -36.3891 20.9688 4.99571 0.9159 -9.20441 0.2193 -1.00375 1.77405 1.17348 0.0117 -4.1944 -0.0248 -42.7842 24.7472 5.54526 0.0071 -2.3249 -0.0142 -8.91326 5.62868 -0.442281 0.6113 -8.72311 -2.0637 -6.58211 6.72802 5.06502 -0.1927 -3.8059 -0.2383 -13.8829 9.68231 -0.672477 -0.1091 -2.1688 -0.1362 -15.2685 10.641 -0.610654 -0.6151 -8.09471 -3.5641 13.8074 -0.976077 8.79342 -0.4882 -2.341 -0.6462 -17.7367 12.2752 -1.06114 -0.3575 -1.7167 -0.4742 -8.75069 6.03016 -1.00087 -1.42 -1.8761 1.4223 -11.5753 -16.7453 -49.4481 -1.1471 -3.4929 2.6334 -4.53231 0.274133 0.31308 -0.823 -2.3 1.6571 8.53294 10.6973 -3.07913 -2.2603 21.606 7.4023 -23.7819 1.26095 -26.5068 -13.5187 -1.1334 -5.0155 -60.7549 -12.8704 -37.9702 0.0994 -28.0499 -0.2431 -52.7397 -49.1178 -64.1959 -0.0679 -23.3996 -0.1402 -19.5887 16.6383 -129.302 -0.7932 -9.0691 2.5189 -26.3168 9.86696 9.08474 0.8272 -3.3923 0.5977 39.4243 12.0337 -4.97739 0.565 -2.3158 0.4082 44.635 13.2363 -6.19724 -0.916 -9.2044 0.2193 -2.23347 10.2522 5.03866 -0.0117 -4.1944 -0.0248 52.3752 15.6204 -6.40189 -0.0071 -2.3249 -0.0142 44.0892 13.7159 -4.48618 -0.6113 -8.7231 -2.0637 15.0073 7.58689 -5.70555 0.1927 -3.8059 -0.2383 37.2883 13.8496 -2.5318 0.1091 -2.1688 -0.1362 38.5715 14.2636 -2.77361 0.6151 -8.0947 -3.564 23.0539 4.3754 -8.90263 0.4882 -2.341 -0.6462 30.7535 11.5467 -0.514216 0.3574 -1.7166 -0.4742 30.6848 11.5224 -0.50609 1.4199 -1.8761 1.4221 7.9115 0.880283 52.6245 1.1472 -3.4929 2.6336 -0.67116 1.52911 0.489065 0.8229 -2.3 1.6571 -6.80912 13.8548 5.28543 -9.412 3.9771 -0.7758 -2.82057 -85.0418 -35.3843 -0.7531 -40.938 0 25.6999 60.8507 -20.9362 -3.55271e-015 -40.1986 0 -1.78289 -20.9242 1.76583 -7.10543e-015 -4.4182 9.239 2.12068 -8.19017 -1.25235 9.4119 3.9773 -0.7758 150.449 -53.7827 160.783 0.7532 -40.9383 0 -0.636105 60.8289 1.99018 -7.10543e-015 -40.1986 -1.77636e-015 14.5861 -3.65382 -23.1258 7.10543e-015 -4.4182 9.239 0.555718 0.986775 -0.0446074 
